<?xml version="1.0" encoding="UTF-8"?>
<svg id="Camada_1" data-name="Camada 1" xmlns="http://www.w3.org/2000/svg" viewBox="0 0 1024.96 237.7">
  <defs>
    <style>
      .cls-1 {
        fill: #fff;
      }
    </style>
  </defs>
  <path class="cls-1" d="M253.67,23.33c18.26.75,36.46,6.89,52.6,15.2,12.29,6.33,31.34,19.79,44.71,20.67,5.64.09,11.27-.18,16.85-.98-7.98-8.69-13.29-18.79-16.96-29.96l.71-.39c17.71,11.25,36.85,18.33,54.19,30.41,1.3.9,8.19,5.67,8.55,6.51.25.6-.83.71-1.15.76-2.5.42-5.39.37-7.95.71-27.43,3.63-65.56,14.88-72.45,45.79-2.73,12.22-1.68,21.1-9.58,32.05-.72.99-5.41,7.21-6.67,5.98.13-15.08-1.24-34.4-13.64-44.81-15.73-13.2-27.63-.49-25.44,17.07,3.45,27.65,21.57,53.83,39.55,74.15,4.56,5.16,10.11,10.17,14.44,15.36.22.26,2.39,2.76.96,2.57-1.31-.18-4.9-2.58-6.23-3.39-14.07-8.65-27.99-20.76-39.96-32.13-19.65-18.68-33.97-38.78-50.83-59.69-11.51-14.27-20.96-26.8-40.13-31-27.09-5.94-42.9,10.7-65.24,20.86-26.31,11.96-62.44,16.7-86.52-2.52-5.55-4.43-16.65-15.7-17.09-22.97-.02-.42.06-1.07.4-1.35,2.6,1.98,4.22,5.19,6.41,7.68,16.1,18.26,37.76,18.5,60.13,13.6,24.35-5.33,47.73-18.43,67.76-32.87,28.96-20.89,45.54-45.6,84.87-47.32,2.43-.11,5.26-.1,7.7,0Z"/>
  <path class="cls-1" d="M402.71,86.17c40.15-2.55,69.77,37.64,55.55,75.29-15.69,41.54-72.19,48.89-97.75,12.42-25.12-35.83-1.28-84.95,42.2-87.71ZM402.07,103.45c-25.71,2.27-41.6,30.03-31.42,53.58,11.4,26.37,47.46,31.55,65.46,8.9,21.38-26.9.17-65.5-34.05-62.47Z"/>
  <path class="cls-1" d="M837.91,165.14v-75.54h15.71v101.47h-17.16l-51.15-75.54v75.54h-15.71v-101.47h17.16c16.85,23.6,31.82,48.55,48.51,72.25.77,1.1,1.6,2.45,2.64,3.29Z"/>
  <path class="cls-1" d="M530.33,86.17c15.63-.93,31.93,5.09,42.69,16.44l-11.72,12.26c-4.08-3.71-8.3-6.86-13.5-8.86-30.18-11.64-60.2,15.89-51.16,46.9,8.31,28.48,45.57,36.84,65.34,14.81l12,12.04c-20.53,23.14-57.55,23.33-79.5,1.88-34.51-33.71-12.2-92.61,35.85-95.46Z"/>
  <path class="cls-1" d="M908.78,191.06l35.47-101.49,18.69.05,35.62,101.44h-17.32l-8.64-23.22-38.03-.17-8.8,23.39h-16.99ZM969.06,155.85l-15.55-48.98-15.55,48.98h31.1Z"/>
  <path class="cls-1" d="M663.47,191.06l35.47-101.49,18.69.05,35.95,101.44h-17.64l-8.97-23.53h-37.85s-8.65,23.53-8.65,23.53h-16.99ZM723.76,155.85l-15.55-48.98-15.55,48.98h31.1Z"/>
  <polygon class="cls-1" points="646.8 104.32 607.04 104.32 607.04 130.89 646.8 130.89 646.8 145.29 607.04 145.29 607.04 175.54 607.52 176.02 646.8 176.02 646.8 191.06 590.36 191.06 590.36 89.75 590.84 89.27 646.32 89.27 646.8 89.75 646.8 104.32"/>
  <rect class="cls-1" x="875.43" y="89.59" width="16.67" height="101.47"/>
</svg>