<?xml version="1.0" encoding="UTF-8"?>
<svg id="Camada_1" data-name="Camada 1" xmlns="http://www.w3.org/2000/svg" xmlns:xlink="http://www.w3.org/1999/xlink" viewBox="0 0 1080 1080">
  <defs>
    <style>
      .cls-1 {
        fill: #f5b047;
      }

      .cls-2 {
        fill: #f7b247;
      }

      .cls-3 {
        fill: #fff;
      }

      .cls-4 {
        filter: url(#drop-shadow-1);
      }

      .cls-5 {
        fill: #ff4069;
      }

      .cls-6 {
        fill: #362985;
      }
    </style>
    <filter id="drop-shadow-1" x="63" y="34" width="968" height="1026" filterUnits="userSpaceOnUse">
      <feOffset dx="7" dy="7"/>
      <feGaussianBlur result="blur" stdDeviation="5"/>
      <feFlood flood-color="#000" flood-opacity=".2"/>
      <feComposite in2="blur" operator="in"/>
      <feComposite in="SourceGraphic"/>
    </filter>
  </defs>
  <g class="cls-4">
    <path class="cls-3" d="M999.46,949c-2.75-2.75-9.2-9.2-19.97-9.2h-37.58v-105.76c0-3.94-.87-7.71-2.62-11.27-.54-1.73-1.28-3.41-2.19-5.02,3.99-2.98,7.19-6.37,9.85-9.73l49.77-37.17c6.57-4.9,10.38-12.66,10.25-20.86-.27-17.61-2.15-35.97-5.72-56.1-2.92-26.1-5.7-52.62-8.39-78.28-5.31-50.75-10.81-103.24-17.7-154.99-.05-.44-.09-1.7-.11-2.62-.16-5.83-.42-15.58-6.62-25.23-4.04-6.3-10.61-10.45-17.9-11.49-2.71-.77-5.52-1.18-8.38-1.21,4.37-4.29,7.31-10.14,8.05-16.9.3-2.73.16-5.49-.42-8.18,1.35.1,2.7.19,4.07.27.49.03.97.04,1.45.04,6.37,0,12.52-2.35,17.24-6.68,5.08-4.66,8.06-11.13,8.27-18.01.45-9.91-3.44-16.56-7.21-20.62,7.67-5.21,10.49-11.94,11.49-16.8,1.61-7.8-.33-15.81-5.34-21.95-2.36-2.89-7.06-7.32-14.72-9.13.37-.78.7-1.57.99-2.38,2.98-8.35,1.74-17.63-3.32-24.81-5.03-7.14-13.27-11.41-22.04-11.41-3.36,0-6.66.61-9.81,1.82-2.74,1.05-5.22,2.48-8.06,4.42-1.65-4.15-4.33-7.97-9.07-11.26-4.4-3.05-9.6-4.66-15.03-4.66-10.57,0-20.06,5.86-24.62,14.89-.61-.48-1.23-.94-1.85-1.39-5.13-3.67-10.68-5.53-16.5-5.53-12.02,0-25,8.7-26.54,25.34-.11,1.22-.14,2.44-.07,3.66l-2.1-.45c-1.35-.29-2.7-.43-4.05-.5v-14.41c0-6.77-2.69-13.27-7.48-18.06l-2.18-2.17c-4.79-4.79-11.28-7.48-18.06-7.48h-61.66c-3.05,0-5.98.54-8.71,1.52-2.72-.99-5.65-1.52-8.7-1.52h-61.66c-2.47,0-4.9.38-7.23,1.07-2.34-.7-4.79-1.07-7.28-1.07h-33.37c-3.53,0-6.98.73-10.16,2.11-3.18-1.38-6.63-2.11-10.16-2.11h-33.37c-6.77,0-13.26,2.69-18.05,7.48l-2.18,2.18c-4.64,4.64-7.31,10.87-7.47,17.41-.06.76-.09,1.52-.09,2.27v69.6c0,4.46.03,8.01.08,10.83v3.14c-3.34-2.73-6.84-5.22-10.48-7.41.31-1.99.51-3.52.61-5.01,2.53-38.95-15.02-89.31-53.44-110.22-2-1.09-4.05-1.95-6.09-2.7-.2-1.73-.46-3.49-.83-5.26-.79-3.82-1.54-7.01-2.2-9.83-.91-3.86-1.6-6.77-2.11-10.12-.2-5.19-.8-11.28-1.83-18.54-1.02-9.71-2.32-17.7-4.18-25.85-1.71-7.49-2.89-13.23-3.91-18.95-.02-1.92-.25-3.83-.7-5.71-.24-1.02-.46-2.08-.68-3.16l-.18-1-.21-1.32c-.2-1.41-.4-2.85-.6-4.35-.3-2.23-.57-4.55-.86-6.94-3.02-25.27-8.07-67.57-49.4-79.45-5.73-1.65-11.76-2.48-17.94-2.48-15.74,0-31.64,5.53-43.62,15.17-12.9,10.38-20.68,24-23.12,40.49-.35,2.12-.58,4.08-.7,6-.06.86-.09,1.79-.11,2.76-.22,5.64.06,11.71.88,19.05.94,8.51,2.59,16.28,4.25,23.43,1.1,5.68,2.24,10.96,3.23,14.9.27,1.08.55,2.07.84,3.03.04.14.09.29.13.44.42,2.13.77,4.08,1.05,5.92-9.03.68-17.7,3.26-25.33,7.54-4.21,2.36-7.73,4.95-10.74,7.66-7.52-2.82-15.57-4.32-23.74-4.32-4.59,0-9.13.47-13.55,1.37-.5-1.33-.97-2.46-1.4-3.46,0-.54.01-1.23.03-2.09,0,0,0-.4.01-.43.13-2.37.11-5.01-.05-8.07-.39-13.88-2.48-34.08-10.17-52.7-.74-2.1-1.47-3.96-2.23-5.65-.04-.09-.08-.18-.12-.26-.19-.42-.39-.83-.62-1.32-.06-.13-.13-.25-.19-.38-3.46-6.91-7.9-12.98-13.22-18.07-11.39-11.65-25.97-17.8-42.2-17.8-5.43,0-11.09.7-16.82,2.09-22.73,5.49-48.77,25.73-52.26,52.41-.46,3.5-.62,7.45-.5,12.05,0,1.55.07,2.98.18,4.36.01.17.03.34.04.51,1.11,17.49,5.59,40.18,8.18,52.24.84,3.9,2.22,7.29,3.23,9.77-.18,1.67-.28,3.61-.13,5.73.37,5.55,1.44,13.06,2.13,17.53.73,7.97,2.04,18.41,5.46,29.83.66,2.19,1.45,4.22,2.18,5.9.31.93.62,1.8.94,2.63.49,1.25,1.01,2.4,1.53,3.44,0,1.61-.09,3.69-.17,5.36-.19,4.25-.4,9.08.06,14.19,1.9,21.28,7.47,42.98,12.84,63.97,1.82,7.08,3.69,14.4,5.37,21.49.11.65.21,1.3.31,1.94.09.6.2,1.19.33,1.78,1.26,5.73,2.21,11.76,3.21,18.14.82,5.21,1.66,10.58,2.72,16.04.05.65.1,1.31.14,1.96.15,2.22.58,4.41,1.3,6.52l1.73,5.11c.07.26.15.52.22.78l-13.67,9.54c-4.11,2.68-8.45,5.42-12.66,8.07-13.62,8.58-27.69,17.46-39.66,27.88-6.8,5.93-9.71,12.24-11.63,16.42-1.54,3.35-2.34,6.99-2.34,10.68v.23c-.28,2.02-.43,4.04-.43,6.05v271.64c0,2.01.14,4.03.43,6.05v.52c0,2.93.51,5.84,1.49,8.6,1.99,5.57,5.97,13.28,13.71,19.5-3.67,4.53-5.71,10.2-5.71,16.09v177c0,6.77,2.69,13.27,7.48,18.06l2.18,2.18c4.79,4.79,11.28,7.48,18.06,7.48h42.8c8.48,0,16.4-4.21,21.15-11.23,1.4-2.07,2.47-4.31,3.2-6.63,1.75-3.56,2.63-7.34,2.63-11.3v-37.58h22.63v36.36c0,1.59.13,3.18.38,4.74.49,6.01,3.1,11.69,7.39,15.98l2.18,2.18c4.79,4.79,11.29,7.48,18.06,7.48h109.54c8.27,0,15.69-3.97,20.37-10.17,12.8,6.82,27.84,10.5,43.29,10.51h.01c30.61,0,56.18-13.62,70.39-35.5v6c0,3.94.87,7.71,2.62,11.27.73,2.34,1.81,4.58,3.21,6.66,4.75,7.02,12.68,11.23,21.15,11.23h42.8c6.77,0,13.26-2.69,18.05-7.48l2.18-2.18c1.12-1.12,2.12-2.34,3-3.63.88,1.28,1.85,2.52,2.96,3.63l2.18,2.18c4.79,4.79,11.28,7.48,18.05,7.48h40.62c3.94,0,10.48-.97,16.83-6.13,3.26,2.56,7.1,4.3,11.22,5.05,2.27.52,4.61.78,6.99.78h32.07s35.65.38,35.74.38c1.22,0,2.45-.09,3.66-.26,1.25-.18,3.41-.62,5.94-1.63,2.98,1.18,6.17,1.82,9.42,1.82h40.62c4.67,0,9.17-1.28,13.06-3.59,3.91,2.33,8.42,3.59,13.06,3.59h40.63c2.22,0,4.41-.32,6.52-.88,2.12.56,4.31.88,6.54.88h108.82c6.77,0,13.27-2.69,18.06-7.48l2.18-2.18c4.79-4.79,7.48-11.28,7.48-18.06v-40.62c0-10.77-6.45-17.22-9.2-19.97"/>
    <path class="cls-6" d="M980.83,749.15l-2.59-32.2-.63-.05-29.78-265.63c0-1.62-.61-2.97-1.82-4.05-1.22-1.07-2.63-1.62-4.26-1.62h-101.36c-2.26,0-3.93.69-5.03,2.04l-.15-.21-28.07,19.6v-15.34c0-1.62-.61-3.04-1.83-4.26-1.21-1.22-2.64-1.82-4.26-1.82h-163.39c-1.62,0-3.04.61-4.26,1.82-.35.34-.63.71-.87,1.09l-15.55,10.85v-7.68c0-1.62-.61-3.04-1.82-4.26-1.22-1.22-2.64-1.82-4.26-1.82h-57.98c-1.62,0-3.04.61-4.26,1.82-.36.37-.66.75-.91,1.16l-43.61,30.45-3.11-27.76c0-1.62-.61-2.97-1.82-4.05-1.22-1.07-2.64-1.62-4.26-1.62h-101.36c-2.34,0-4.06.73-5.16,2.18l-55.73,30.41c-3.64-5.95-4.55-5.49-10.06-10.5-16.22-14.73-36.22-22.09-60-22.09h-85.14c-1.62,0-3.04.61-4.26,1.82l-66.21,46.22c-1.7.88-3.29,2.02-4.69,3.43-3.55,3.55-5.5,8.21-5.5,13.13v271.64c0,4.92,1.95,9.57,5.49,13.12,3.55,3.55,8.21,5.5,13.13,5.5h85.14c26.89,0,49.92-8.53,68.44-25.36,6.54-5.94,11.94-12.5,16.23-19.62l-2.67,24.16-.08.69v.69c0,4.75,1.52,9.15,4.39,12.72,3.42,4.31,8.49,6.71,14.24,6.71h57.17c4.17,0,8.06-1.3,11.35-3.78h1.56l16.69-10.79c.77,3.77,2.7,7.17,5.67,9.8,3.49,3.11,7.85,4.77,12.57,4.77h57.17c4.99,0,9.6-1.97,13.33-5.71l.48-.48c.21.23.4.46.62.68,3.55,3.55,8.21,5.5,13.13,5.5h57.97c4.92,0,9.58-1.95,13.13-5.5.53-.53,1.02-1.1,1.48-1.68l46.23-35.42v23.97c0,4.92,1.95,9.58,5.5,13.13,3.55,3.55,8.21,5.5,13.13,5.5h57.98c4.92,0,9.58-1.95,13.13-5.5.71-.71,1.34-1.48,1.92-2.27l29.05-22.25-1.02,9.21-.08.69v.69c0,4.75,1.52,9.15,4.39,12.72,3.42,4.31,8.49,6.71,14.24,6.71h57.17c4.72,0,9.07-1.66,12.6-4.8.97-.86,1.83-1.81,2.58-2.82l14.01-10.73.04.64c.14,5.02,2.27,9.59,6.05,12.94,3.49,3.11,7.85,4.77,12.57,4.77h57.17c4.99,0,9.6-1.97,13.33-5.71l.49-.49.44-.55c.69-.86,1.29-1.77,1.82-2.71l54.62-41.85Z"/>
    <path class="cls-1" d="M179.56,619.19l17.81.07c4.6,0,8.69-1.71,12.19-5.07,3.5-3.36,5.27-7.53,5.27-12.37v-9.73c0-4.84-1.77-9.07-5.27-12.57-3.51-3.5-7.73-5.27-12.57-5.27h-17.43v44.94ZM179.69,677.42c-.09.46-.13.93-.13,1.43v32.44c0,.44.03.76.06.99l.68,5.5h16.69c4.84,0,9.07-1.77,12.57-5.27,3.5-3.5,5.27-7.72,5.27-12.57v-9.73c0-4.84-1.77-9.06-5.27-12.57-3.51-3.5-7.74-5.27-12.57-5.27h-16.3l-1,5.05ZM115.5,787.91c-1.64,0-3.03-.6-4.26-1.83-1.23-1.23-1.82-2.62-1.82-4.26v-271.64c0-1.64.6-3.03,1.82-4.26,1.23-1.23,2.62-1.82,4.26-1.82h85.14c23.67,0,43.86,7.43,60,22.09,16.14,14.67,24.32,33.7,24.32,56.56,0,5.05-.14,9.69-.4,13.79-.28,4.08-1.34,9.06-3.24,15.2-1.89,6.06-4.48,11.17-7.7,15.2-3.23,4.04-8.14,7.59-14.6,10.54-2.13.98-4.43,1.81-6.85,2.46l-22.26,6.05,22.26,6.05c2.42.66,4.73,1.49,6.86,2.46,6.46,2.96,11.37,6.51,14.6,10.54,3.22,4.03,5.82,9.15,7.7,15.2,1.91,6.14,2.97,11.12,3.24,15.2.27,4.09.4,8.73.4,13.79,0,22.87-8.18,41.9-24.32,56.56-16.14,14.66-36.32,22.1-60,22.1h-85.14Z"/>
    <path class="cls-1" d="M376.01,600.64l-4.91,77.27,2.61,2.04,1.75,1.47,2.13-.12h12.15l1.88-2.3c.95-1.17,1.49-2.53,1.58-4.06l.02-.39-4.7-73.89h-12.52ZM406.19,787.91c-1.62,0-3.05-.55-4.26-1.62-1.2-1.06-1.79-2.34-1.82-3.93v-.29s-1.99-30.59-1.99-30.59l-31.7-.06-1.99,30.8v.15c-.03,1.59-.63,2.87-1.83,3.93-1.21,1.08-2.64,1.62-4.26,1.62h-57.17c-1.3,0-3.13-.35-4.46-2.03-1.07-1.33-1.62-3-1.62-4.87l30-271.23c.53-3.7,2.72-5.67,6.49-5.67h101.36c1.61,0,3.04.55,4.26,1.62,1.17,1.04,1.77,2.31,1.82,3.84v.25s30.41,271.19,30.41,271.19c0,1.88-.55,3.52-1.62,4.86h0c-1.34,1.35-2.84,2.03-4.46,2.03h-57.17Z"/>
    <path class="cls-1" d="M490.92,787.91c-1.64,0-3.03-.6-4.26-1.83-1.23-1.23-1.82-2.62-1.82-4.26v-271.64c0-1.64.6-3.03,1.82-4.26,1.23-1.23,2.62-1.82,4.26-1.82h57.97c1.64,0,3.03.6,4.26,1.82,1.23,1.23,1.82,2.62,1.82,4.26v271.64c0,1.64-.6,3.03-1.82,4.26-1.21,1.21-2.64,1.83-4.26,1.83h-57.97Z"/>
    <path class="cls-1" d="M628.36,787.91c-1.64,0-3.03-.6-4.26-1.83-1.23-1.23-1.82-2.62-1.82-4.26v-207.58h-46.62c-1.64,0-3.03-.6-4.26-1.82-1.21-1.21-1.83-2.64-1.83-4.26v-57.98c0-1.64.6-3.03,1.82-4.25,1.21-1.21,2.64-1.83,4.26-1.83h163.39c1.64,0,3.03.6,4.26,1.83,1.21,1.21,1.82,2.64,1.82,4.25v57.98c0,1.64-.6,3.03-1.82,4.26-1.21,1.21-2.64,1.82-4.26,1.82h-46.62v207.58c0,1.61-.61,3.05-1.83,4.26-1.23,1.23-2.62,1.83-4.26,1.83h-57.97Z"/>
    <path class="cls-1" d="M822.79,600.64l-4.91,77.27,2.61,2.04,1.75,1.47,2.13-.12h12.15l1.88-2.3c.95-1.17,1.48-2.53,1.58-4.06l.02-.39-4.7-73.89h-12.52ZM852.97,787.91c-1.62,0-3.05-.55-4.26-1.62-1.2-1.06-1.79-2.35-1.82-3.93v-.29s-1.99-30.59-1.99-30.59l-31.7-.06-1.99,30.8v.14c-.03,1.59-.63,2.87-1.83,3.93-1.21,1.08-2.64,1.62-4.26,1.62h-57.17c-1.3,0-3.13-.35-4.46-2.03-1.07-1.33-1.62-3-1.62-4.87l30-271.23c.53-3.7,2.72-5.67,6.49-5.67h101.36c1.61,0,3.04.55,4.26,1.62,1.17,1.04,1.77,2.31,1.82,3.84v.25s30.41,271.19,30.41,271.19c0,1.88-.55,3.52-1.62,4.86h0c-1.34,1.35-2.84,2.03-4.46,2.03h-57.17Z"/>
    <path class="cls-6" d="M111.6,1011.47c-1.21,0-2.28-.46-3.18-1.36-.9-.9-1.36-1.97-1.36-3.18v-172.71c0-1.21.46-2.28,1.36-3.18.9-.9,1.97-1.36,3.18-1.36h103.88c1.21,0,2.28.46,3.18,1.36.9.9,1.36,1.97,1.36,3.18v36.86c0,1.21-.46,2.28-1.36,3.18-.9.9-1.97,1.36-3.18,1.36h-62.48v21.86h48.82c1.21,0,2.28.46,3.18,1.36.9.9,1.36,2.06,1.36,3.44v36.6c0,1.38-.46,2.54-1.36,3.44-.9.9-1.97,1.36-3.18,1.36h-48.82v63.26c0,1.21-.46,2.28-1.36,3.18-.9.9-1.97,1.36-3.18,1.36h-36.86Z"/>
    <path class="cls-6" d="M231.46,1011.47c-1.21,0-2.28-.46-3.18-1.36-.9-.9-1.36-1.97-1.36-3.18v-172.71c0-1.21.46-2.28,1.36-3.18.9-.9,1.97-1.36,3.18-1.36h103.88c1.21,0,2.28.46,3.18,1.36.9.9,1.36,1.97,1.36,3.18v36.86c0,1.21-.46,2.28-1.36,3.18-.9.9-1.97,1.36-3.18,1.36h-62.48v21.86h48.82c1.21,0,2.28.46,3.18,1.36.9.9,1.36,2.06,1.36,3.44v36.6c0,1.38-.46,2.54-1.36,3.44-.9.9-1.97,1.36-3.18,1.36h-48.82v21.85h62.48c1.21,0,2.28.46,3.18,1.36.9.9,1.36,1.97,1.36,3.18v36.86c0,1.21-.46,2.28-1.36,3.18s-1.97,1.36-3.18,1.36h-103.88Z"/>
    <path class="cls-6" d="M403.13,1011.47c-15.9,0-29.35-4.43-39.99-13.17-10.68-8.76-16.44-21.03-17.13-36.45v-.12c0-1.54.56-3.64,3.26-4.41l36.86-11.85.12-.05c.52-.2,1.04-.31,1.55-.31.85,0,1.65.27,2.44.81,1.28.89,1.94,2.05,1.97,3.44l.26,4.96v.37c.19,3.36,1.24,6.02,3.15,7.93,1.92,1.92,4.45,2.9,7.52,2.9s5.59-.97,7.52-2.9,2.9-4.66,2.9-8.29c0-2.78-.88-5.17-2.68-7.3-1.82-2.15-4.29-3.86-7.34-5.1-3.16-1.28-6.8-2.71-10.81-4.25-3.96-1.51-8.15-2.98-12.47-4.37-4.33-1.38-8.59-3.4-12.66-6-4.07-2.59-7.7-5.53-10.82-8.73-3.15-3.24-5.76-7.61-7.75-12.99-1.99-5.37-3.01-11.61-3.01-18.54,0-18.15,5.32-32.41,15.81-42.37,10.48-9.96,24.2-15.01,40.8-15.01,15.72,0,29.09,4.43,39.74,13.17,10.65,8.75,16.41,20.98,17.12,36.36.18,2.29-.82,3.79-2.95,4.59l-37.16,11.87-.12.05c-.52.2-1.04.31-1.55.31-.83,0-1.67-.28-2.44-.82-1.28-.88-1.94-2.04-1.97-3.44l-.26-4.96v-.28c0-3.41-.97-6.11-2.9-8.03s-4.45-2.9-7.52-2.9-5.62.95-7.65,2.91c-2,1.92-3.02,4.7-3.02,8.28,0,3.06,1.19,5.76,3.53,8.02,2.41,2.33,5.63,4.28,9.57,5.78,4.01,1.54,8.42,3.1,13.12,4.63,4.73,1.55,9.57,3.51,14.39,5.83,4.84,2.33,9.35,5.23,13.41,8.59,4.1,3.4,7.42,8.09,9.86,13.92,2.43,5.82,3.66,12.71,3.66,20.49,0,18.15-5.32,32.41-15.8,42.37-10.48,9.96-24.12,15.01-40.55,15.01"/>
    <path class="cls-6" d="M503.51,1011.47c-1.21,0-2.28-.46-3.18-1.36-.9-.9-1.36-1.97-1.36-3.18v-131.31h-28.97c-1.21,0-2.28-.45-3.18-1.36-.9-.9-1.36-1.97-1.36-3.18v-36.86c0-1.21.46-2.28,1.36-3.18.9-.9,1.97-1.36,3.18-1.36h103.88c1.21,0,2.28.46,3.18,1.36.9.9,1.36,1.97,1.36,3.18v36.86c0,1.21-.46,2.28-1.36,3.18-.9.9-1.97,1.36-3.18,1.36h-28.97v131.31c0,1.21-.46,2.28-1.36,3.18s-1.97,1.36-3.18,1.36h-36.86Z"/>
    <path class="cls-6" d="M590.89,1011.47c-1.21,0-2.28-.46-3.18-1.36-.9-.9-1.36-1.97-1.36-3.18v-172.71c0-1.21.46-2.28,1.36-3.18.9-.9,1.97-1.36,3.18-1.36h36.86c1.21,0,2.28.46,3.18,1.36.9.9,1.36,1.97,1.36,3.18v172.71c0,1.21-.46,2.28-1.36,3.18-.9.9-1.97,1.36-3.18,1.36h-36.86Z"/>
    <path class="cls-6" d="M664.87,1011.47c-2.74,0-4.4-1.45-4.79-4.18l-19.07-172.41c-.19-1.45.18-2.69,1.06-3.68.92-1.01,2.05-1.51,3.46-1.51h36.34c1.19,0,2.25.4,3.15,1.2.88.78,1.36,1.82,1.38,2.99l6.65,104.44h8.04l6.65-104.44c.02-1.17.5-2.2,1.38-2.98.9-.79,1.96-1.2,3.15-1.2h36.09c1.41,0,2.55.49,3.46,1.51.88.98,1.26,2.23,1.07,3.59l-19.07,172.4c-.23,2.8-1.84,4.28-4.54,4.28h-64.44Z"/>
    <path class="cls-6" d="M798.06,942.33h13.05l-2.5-39.41h-8.04l-2.5,39.41ZM819.8,1011.47c-1.2,0-2.26-.4-3.15-1.2-.88-.78-1.36-1.81-1.38-2.98l-1.23-19.02h-18.9l-1.22,19.02c-.02,1.17-.5,2.2-1.38,2.98-.9.8-1.95,1.2-3.15,1.2h-36.35c-1.4,0-2.56-.53-3.36-1.54-.78-.97-1.18-2.17-1.18-3.51l19.1-172.67c.37-2.62,2.03-4.06,4.77-4.06h64.44c1.19,0,2.25.4,3.15,1.2.86.76,1.34,1.78,1.38,2.91v.15s19.34,172.47,19.34,172.47c0,1.33-.41,2.55-1.18,3.51l-.05.06c-.99.99-2.1,1.48-3.31,1.48h-36.35Z"/>
    <path class="cls-6" d="M873.67,1011.47c-1.21,0-2.28-.46-3.18-1.36-.9-.9-1.36-1.97-1.36-3.18v-172.71c0-1.21.46-2.28,1.36-3.18.9-.9,1.97-1.36,3.18-1.36h36.86c1.21,0,2.28.46,3.18,1.36.9.9,1.36,1.97,1.36,3.18v131.31h62.48c1.21,0,2.28.46,3.18,1.36.9.9,1.36,1.97,1.36,3.18v36.86c0,1.21-.46,2.28-1.36,3.18-.9.9-1.97,1.36-3.18,1.36h-103.88Z"/>
    <path class="cls-6" d="M596.31,419.95c-4.87,0-9.39-.49-13.42-1.47-4.04-.97-7.58-2.25-10.51-3.79-2.96-1.55-5.63-3.72-7.95-6.47-2.3-2.72-4.24-5.32-5.76-7.75-1.57-2.48-2.84-5.62-3.91-9.6-1.04-3.88-1.81-7.29-2.3-10.13-.49-2.87-.87-6.56-1.15-11.28-.28-4.6-.45-8.38-.52-11.24-.07-2.78-.1-6.55-.1-11.54v-69.6c0-.98.37-1.84,1.09-2.56.73-.73,1.59-1.09,2.56-1.09h29.71c.98,0,1.84.37,2.56,1.09s1.09,1.59,1.09,2.56v76.88c0,1.29.03,3,.1,5.07.07,2.12.17,4.04.31,5.69.13,1.66.34,3.5.62,5.48.27,1.96.61,3.69,1.02,5.12.4,1.42.92,2.75,1.52,3.96.58,1.16,1.33,2.07,2.22,2.71.88.63,1.8.94,2.8.94s1.87-.3,2.68-.93c.83-.64,1.55-1.55,2.13-2.72.61-1.21,1.12-2.54,1.52-3.96.4-1.41.75-3.13,1.02-5.12.28-2,.52-3.84.73-5.5.2-1.63.31-3.53.31-5.65v-81.96c0-.98.37-1.84,1.09-2.56.73-.73,1.59-1.09,2.56-1.09h29.71c.98,0,1.84.37,2.56,1.09.73.73,1.09,1.59,1.09,2.56v81.13c0,2.85-.17,6.5-.52,11.16-.35,4.57-.77,8.36-1.25,11.27-.49,2.94-1.26,6.38-2.3,10.23-1.05,3.91-2.36,7.14-3.91,9.6-1.54,2.44-3.47,5.05-5.76,7.75-2.32,2.74-5,4.92-7.95,6.47-2.94,1.54-6.44,2.81-10.41,3.79-3.97.98-8.45,1.47-13.32,1.47"/>
    <path class="cls-6" d="M763.56,419.95c-.98,0-1.84-.37-2.56-1.09-.73-.73-1.09-1.59-1.09-2.57v-78.94l-6.46-.41-10.12,79.87c-.25,2.73-2.39,3.13-3.65,3.13h-30.54c-1.26,0-3.41-.41-3.65-3.13l-10.12-79.87-6.47.41v78.94c0,.98-.37,1.84-1.09,2.57-.73.73-1.59,1.09-2.56,1.09h-29.71c-.98,0-1.84-.37-2.57-1.09-.73-.73-1.09-1.59-1.09-2.57v-139.21c0-.98.37-1.84,1.09-2.56.73-.73,1.59-1.09,2.57-1.09h56.93c.96,0,1.81.32,2.54.97.71.63,1.1,1.47,1.12,2.41l5.05,81.83h6.48l5.05-81.83c.02-.94.4-1.78,1.11-2.41.72-.64,1.58-.97,2.54-.97h56.93c.98,0,1.84.37,2.56,1.09.73.73,1.09,1.59,1.09,2.56v139.21c0,.98-.37,1.84-1.09,2.57-.73.73-1.59,1.09-2.56,1.09h-29.71Z"/>
    <path class="cls-6" d="M225.52,484.18c16.39-8.87,30.12-23.49,33.95-42.02.14-1.61,1.59-2.85,3.21-2.52,1.79.51,2.85,2.38,3.93,3.6,5.37,6.75,6.97,16.91,2,24.25,2.22-8.56-1.36-17.57-8.14-22.93l4.51-1.85c-2.06,20.58-19.05,38.45-39.45,41.46"/>
    <path class="cls-6" d="M361.28,449.3c-10.49-1.46-20.5-7.98-25.18-17.68-1.64-3.41-2.63-6.78-2.76-10.66l2.97,1.63c-6.55,5.1-2.59,14.68.22,20.96-5.77-6.25-10.5-18.06-2.24-24.34,1.25-.88,3.01.14,2.98,1.63,2,13.13,12.79,22.42,24.01,28.45"/>
    <path class="cls-5" d="M243.34,436.3c-5.89,14.23-25.72,20.13-35.88,14.59-10.16-5.54-15.23-19.31-8.06-31.26,5.77-9.62,12.44-2.97,21.91,3.7,9.99,7.03,12.17,10.55,22.03,12.98"/>
    <path class="cls-6" d="M231.68,438.75c-4.11,5.94-12.83,9.16-18.44,6.1-5.61-3.06-7.76-9.95-4.79-15.38,2.96-5.44,7.72-4.14,12.44.17,4.63,4.24,4.63,7.52,10.8,9.12"/>
    <path class="cls-2" d="M243.34,436.3c-5.89,14.23-25.72,20.13-35.88,14.59-10.16-5.54-15.23-19.31-8.06-31.26,5.77-9.62,12.44-2.97,21.91,3.7,9.99,7.03,12.17,10.55,22.03,12.98"/>
    <path class="cls-6" d="M265.49,432.34c-5.66,8.19-17.7,12.64-25.44,8.41-7.74-4.22-10.7-13.72-6.61-21.22,4.09-7.5,10.65-5.71,17.16.23,6.39,5.84,6.39,10.38,14.89,12.58"/>
    <path class="cls-6" d="M414.91,449.85c4.97-6.77,8.15-14.88,10.43-22.98.79-2.84,1.38-5.75,1.92-8.7,1.73,10.63,1.75,21.62-.47,32.24-.38,1.69-.74,3.29-1.35,4.97l-10.52-5.52Z"/>
    <path class="cls-5" d="M381.33,562.13c-.36,0-.93-.09-1.65-.84-1.28-1.35-1.16-2.03-.86-3.69.12-.69.27-1.48.29-2.36.28-11.92-.36-20.11-4.59-31.82-.46-1.29-1.02-2.33-1.51-3.25-1.03-1.93-1.66-3.1-1.2-5.69.03-.19.12-.37.26-.55l.08-.09c.63-.74,1.95-1.25,3.2-1.25.47,0,.9.08,1.23.21.51.43,2.06,2.04,3.33,3.35,6.99,7.24,8.75,8.7,10.48,8.7h.21l.28-.05c.59-.12,1.12-.44,1.48-.92l.32-.43.09-.53c.29-1.74,1.13-3.68,2.49-5.78.15-.23.31-.46.47-.69l.53-.51v-.23c.08-.1.15-.2.23-.3,2.67-3.46,6.49-6.84,9.96-8.82,10.45-5.93,23.59-6.62,36.29-7.29,20.65-1.09,42.01-2.22,52.96-25.47,1-2.13,1.84-4.31,2.49-6.49.45-1.56.81-3.09,1.07-4.55,1.65-9.1.1-17.9-4.49-25.43-1.22-2.01-2.65-3.86-4.23-5.48-.59-.61-1.22-1.21-1.92-1.82-.58-.52-1.24-1.06-2.02-1.63-.71-.53-1.44-1.02-2.15-1.46-2.13-1.33-4.49-2.46-7-3.36-1.17-.42-2.34-.79-3.46-1.09-4.58-1.23-9.82-1.91-15.57-2.01l-1.8-.03-.4,1.75c-.81,3.6-2.61,8.31-4.81,12.61-3.48,6.79-8.56,13.26-15.09,19.23-.87.79-1.78,1.58-2.7,2.36-.06.05-.13.1-.21.17-.52.44-1.04.87-1.58,1.3-1.13.91-2.27,1.79-3.41,2.63-33.21,24.43-82.99,32.18-97.45,33.97-11.65,1.44-23,2.17-33.72,2.17-46.68,0-105.43-13.9-120.26-80.11-1.45-6.51-2.51-13.28-3.53-19.83-1.02-6.5-2.07-13.21-3.51-19.75-1.98-13.38-5.32-27.43-8.54-41.01-3.96-16.68-8.06-33.93-9.69-50.11-.25-2.49.08-5.5.39-8.41.31-2.85.6-5.54.33-7.64-.22-1.74-1.34-3.79-2.43-5.77-.6-1.08-1.21-2.2-1.53-3.03-3.41-8.8-8.17-36.89-8.9-47.59-.05-.75.13-1.53.35-2.44.3-1.3.68-2.91.4-4.84-.2-1.44-.96-3.25-1.84-5.36-.72-1.73-1.47-3.52-1.82-4.95-1.18-4.84-1.83-9.94-2.45-14.88-.36-2.84-.73-5.78-1.2-8.66-.52-3.14-1.18-6.41-1.89-9.86-1.21-5.93-2.46-12.07-2.87-17.39-.95-12.13,4.58-20.87,9.39-26.06,8.06-8.71,19.9-13.91,31.68-13.91,13.76,0,24.83,6.96,31.17,19.59l.06.14c5.21,10.54,11.03,43.11,10.41,54.12-.04.77-.3,2.03-.55,3.25-.49,2.38-.99,4.84-.64,6.61.23,1.16.85,2.43,1.53,3.67h0s.29.54.29.54c.16.28.33.57.5.86v.32l.46.46c.93,1.57,1.94,3.32,2.33,4.57,1.52,5.1,2.74,13.94,3.62,20.39.16,1.18.32,2.29.46,3.31.11.78.09,1.62.07,2.51v.18c-.01.12-.02.33-.02.55v1.72l1.66.42c.41.11.78.16,1.14.16,1.37,0,2.15-.76,2.53-1.12.07-.06.13-.13.22-.2,1.22-.93,2.29-2.1,3.31-3.23.95-1.05,1.86-2.04,2.81-2.78,6.41-4.93,14.69-7.65,23.32-7.65s16.78,2.71,23.04,7.64c.71.56,1.37,1.26,2.08,2,1.12,1.18,2.28,2.41,3.85,3.33l2.37,1.4.85-2.62c3.7-11.33,13.32-19.67,25.75-22.31,2.64-.56,5.25-.84,7.76-.84,8.13,0,15.6,2.83,23.53,8.92l4.5,3.46-5.76-32.87c1.55-5.43.61-9.83-.55-13.44-.05-.2-.11-.38-.18-.57-.35-1.08-.75-2.16-1.15-3.26-.52-1.45-1.07-2.95-1.53-4.49l-.05-.15c-.04-.13-.08-.26-.12-.39,0,0-.25-.94-.3-1.15-2.91-11.63-8.19-40.33-7.46-51.47,1.39-21.5,21.68-34.81,39.69-34.81,5.09,0,9.98.98,14.53,2.92,15.57,6.63,20.44,24.16,23.16,40.43l.41,2.62.27,1.86c.02.18.05.38.08.58l.3,2.13c.31,2.2.59,4.39.88,6.54.28,2.12.56,4.21.84,6.26l.3,2.06c.21,1.45.45,2.86.68,4.25.05.29.28,1.54.28,1.54.29,1.61.6,3.13.92,4.52l.03.11c-.87,2.77-1.11,5.47-.74,8.22l.02.18c.41,2.91,1.42,5.49,2.5,8.21.97,2.48,1.98,5.05,2.55,7.99.55,2.84,1.18,6.18,1.83,9.76l.23,1.33c.21,1.17.41,2.33.61,3.51,2.22,13.15,3.25,22.95,3.04,29.13-.01.41-.16.9-.33,1.46-.28.93-.63,2.08-.51,3.46v.13c.17,1.56,1.08,3.2,1.97,4.78.48.87.99,1.76,1.23,2.43.7,1.93,1.29,4.06,1.81,6.52.09.4.16.79.23,1.18.69,3.55,1.15,7.3,1.6,10.92.37,2.96.74,6.02,1.24,8.9.02.14.05.37.1.57l.32,1.48,1.49.24c16.83,2.69,32.17,14.42,42.09,32.2,5.99,10.73,10.12,22.71,11.94,34.64.12.8.23,1.62.33,2.45.12.95.22,1.89.3,2.83.06.64.11,1.27.15,1.89.38,5.2.29,10.22-.25,15l-.02.15v.15c.11,5.56-1.05,11.23-2.18,16.71-.33,1.62-.66,3.23-.96,4.84l-.45,2.27,2.17.48c19.56,3.75,36.71,20.93,43.68,43.77,4.76,15.58,5.31,32.55,1.55,47.77-4.13,16.7-13.09,30.01-25.92,38.5-14.5,9.58-31.4,14.04-53.19,14.04h0c-3.28,0-6.66-.09-10.33-.28-.83-.04-1.66-.06-2.5-.06-13.54,0-25.24,5.2-31.29,13.9l-1.04,1.5,1.65,1.69.41.14c1.89.83,4.96,1.39,8.21,1.98,3.13.57,8.38,1.53,9.37,2.53.87.87,1.38,3.04.74,4.54-.16.37-.37.66-.65.87-.94.66-5.83,1.53-8.45,2-2.1.37-3.92.7-5.15,1.03-6.49,1.76-15.54,5.16-21.46,9.41-.9.64-1.88,1.58-2.92,2.57-2.01,1.92-4.76,4.54-6.71,4.54"/>
    <path class="cls-6" d="M195.03,198.57c.79.73-4.05,6.17-4.87,6.83-5.45,4.34-13.51,6.28-20.38,5.1-3.21-.55-5.66-2.89-8.66-3.86.12-1.19,1.17-1.28,2.05-1.58,2.48-.84,5.78-1.43,8.43-2.07,2.94-.71,22.56-5.23,23.43-4.42"/>
    <path class="cls-6" d="M370.11,456.43c-.91,1.12-4.97.15-6.34-.25-13.94-4.01-26.95-11.74-41.17-14.96-.52-2.21,1.16-1.79,2.84-1.62,3.89.39,27.56,5.15,28.66,4.05,1.94-27.03-8.26-53.08-27.46-71.87,1.57-.32,2.38.2,3.67.77,15.33,6.78,30.94,31.72,35.93,47.25,3.6,11.22,6.12,25.06,3.87,36.63"/>
    <path class="cls-6" d="M406.58,224c-1.63,6.49-10.54,11.04-16.75,11.91-3.67.52-14.57-.71-16.35-4.25-.75-1.48,1.1-1.17,1.8-1.4,2.27-.74,4.73-1.28,7.06-1.84,3.11-.75,23.34-5.27,24.24-4.42"/>
    <path class="cls-6" d="M394.47,161.01c.79.73-4.05,6.17-4.87,6.83-5.45,4.34-13.51,6.28-20.38,5.1-3.21-.55-5.66-2.89-8.66-3.86.12-1.2,1.17-1.28,2.05-1.58,2.48-.84,5.78-1.43,8.43-2.07,2.94-.71,22.56-5.23,23.43-4.42"/>
    <path class="cls-6" d="M207.14,261.56c-1.63,6.49-10.54,11.04-16.75,11.91-3.67.52-14.57-.71-16.35-4.25-.75-1.48,1.1-1.17,1.8-1.4,2.27-.74,4.73-1.28,7.06-1.84,3.11-.75,23.34-5.27,24.24-4.42"/>
    <path class="cls-6" d="M401.89,383.81c2.31-1.98,4.47-3.53,6.09-3.83,3.56-.66,7,5.38,7.46,8.39.62,4.07-.81,9.46-3.66,12.44-6.53,6.82-21.18,2.86-25.37-5.2,1.17-1.3,2.81-1.4,4.34-2.2v.83c3.45,2.05,5.73,3.12,9.95,2.48,6.67-1,6.88-12.51,1.18-12.9M398.89,536.52c4.63.8,9.24,2.17,13.84,3.15.91.2,2.14-.43,1.92.9-11.55,1.73-22.05,7.13-31.49,13.73.66-10.2-1.46-20.11-4.03-29.89,4.33,3.92,9.13,7.33,14.52,9.69,1.64-18.18,15.4-25.75,31.98-28.2,22.88-3.38,43.94.22,65.21-13.12,17.05-10.67,22.22-35.86,15.07-53.96,4.34-1.16,8.64-4.53,11.3-8.09-4.39.22-8,2.18-12.56,1.65-6.11-.71-.08-4.25,1.62-6.53.6-.82,4.14-6.75,3.67-7.23-2.82.67-4.78,3.03-7.52,4.19-8.11,3.45-7.62-.71-13.71-4.35-6.55-3.93-17.59-6.57-25.18-7.13-2.34-.17-9.32-.39-11.18.16-3.17.93-6.11,12.31-7.66,15.76-12.34,27.49-46.95,42.17-74.44,49.92-49.1,13.85-128.74,20.12-165.55-22.62-19.09-22.2-19.86-47.58-25.26-74.88-5.68-28.63-12.61-57.25-17.32-86.05-.88-5.43-2.24-11.2-1.77-16.66.19-2.28,1.67-6.12,1.55-8.11-.11-1.77-2.8-5.65-3.62-7.72-4.4-10.88-8.18-32.12-9.24-44.07-.41-4.62.54-10.08-.1-14.43-.38-2.58-3.02-5.92-3.81-9.12-3.78-15.28-4.42-32.85-8.2-48.33-2.87-25.7,35.2-43.64,51.62-22.55,7.34,9.44,12.17,39.33,12.95,51.71.25,3.89-2.14,11.96-1.68,15.29.39,2.79,4.51,7.59,5.48,10.74,3.78,12.35,6.22,34.05,8.2,47.52.39,2.58-.22,5.34.14,7.93,1.6,11.45,3.08,25.47,11.19,34.09l-3.9,8.76c3.2,15.31,4.15,31.28,9.62,46l-.02.45c-17.58,3.37-27.31,22.76-25.84,39.58,5.71-3.78,11.69-9.51,18.99-9.74,6.21-.2,13.59,6.46,18.96,9.34-12.03,4.21-22.62,11.27-32.3,19.43,8.36,16.39,24.1,35.26,42.77,39.53,16.15,3.7,30.62-2.31,44.43-10.11.52.55-3.03,5.5-3.68,6.41-3.05,4.18-7.16,8.2-11.26,11.36-3.23,2.49-7.35,4.21-10.09,7.26,17.19-2.46,30.98-15.77,35.53-32.29.98.01,1.87,2.23,2.21,3.03,1.83,4.25,1.76,6.6,1.82,11.1.01.96-.59,3.02.81,2.82,2.88-6.54,3.44-12.6.16-19.13l-4.99-9.14c5.31.18,9.52.41,14.3-2.25,10.16-5.69,15.1-22.56,8.71-32.47-.7,2.03-.82,4.27-1.85,6.23-1.42,2.72-4.02,4.62-7.08,5.02-10.91,1.44-30.66-9.73-40.17-15.43l-11.86-7.92c14.91-.99,29.42-10.5,33.92-25.04,3.33,2.07,5.69,5.48,8.93,7.62,13.66,9.02,34.11,7.31,46-3.97,2.67-2.54,4.4-6.11,7.24-8.5,3.96,10.14,15.52,19.22,26.26,20.99.71.12,1.83-.17,1.19,1.2-.4.87-8.27,8.49-9.67,9.71-4.5,3.97-16.49,13.16-22.23,13.36-2.4.09-4.6-1.04-6.43-2.5l-2.84-4.82c-1.61,11.34,4.63,23.58,16.95,24.23-.02,1.9-1.39,3.45-1.59,5.31-.48,4.65,2.92,11.46,6.03,14.86,1.11-.55.03-2.18-.24-2.97-.92-2.57-2.43-5.99-2.5-8.75-.01-.64.41-3,1.52-2.81,2.3,11.15,13.93,19.6,25.04,20.19l-12.13-8.46-6.44-8.49,11.9,5.46c23.14,9.6,41.58-1.39,53.37-21.36,1.9-3.24,4.08-7.51,4.91-11.02-.39-1.43-9.82-6.64-11.83-7.61-6.32-3.05-13.32-5.47-20.39-5.86,1.89-2.44,4.18-4.8,6.44-6.88,1.6-1.47,4.42-3.98,6.07-5.24,7.06-5.36,13.39-.49,20.6,1.62-1.5-8.61-5.89-16.04-12.7-21.38,2.61-6.26-1.05-21.25-5.51-24.04,0,0,3.89,30.24-24.97,35.74-17.78,3.38-31.08-7.44-33.46-25.52-1.31-9.99-2.95-27.42-.66-36.86,3.5-14.43,17.54-19.17,30.95-20.74,25.56-2.99,48.67,5.58,61.85,28.45,12.02,20.87,14.86,44.07,9.97,67.6-.95,4.51-4.07,10.9-2.29,15.14,1.2,2.89,7.48,2.85,10.12,3.63,50.59,15.04,53.19,95.86,10.05,121.06-9.34,5.46-23.26,9.59-34.04,10.36-18.89,1.36-35.08-4.06-51.57,9.01-3.41,2.71-9.74,10.48-10.23,14.82-.19,1.7.09,1.01,1.19,1.19M252.09,351.45c-8.67-5.29-11.29-12.79-13.25-22.3-1.26-6.09-4.21-19.77-3.09-25.25.87-4.29,5.62-10.19,5.29-13.23-.4-3.76-4.61-5.16-6.81-7.79-5.43-6.45-9.34-26.83-8.55-35.08,1.16-12.2,11.06-22.91,23.24-24.41,19.53-2.39,29.38,8.32,33.07,26.26,5.12,24.79,7.92,50.15,13.08,74.95,2.17,23.51-22.54,39.29-42.98,26.84M274.77,416.71c.93-.39,5.55-3.6,6.95-5.67,2.22.92,4.8,1.46,6.17,2.33,1.81,1.17-1.09,4.78-2.09,6-6.78,8.33-22.41,13.44-31.79,6.88-8.2-5.71-10.85-16.97-6.66-25.95.66-1.43,3.34-5.35,4.74-5.76,3.46-1.03,6.6.34,9.48,2.15-2.56.5-4.64,2.2-5.3,5.19-2.65,11.92,7.49,19.39,18.51,14.82M300.44,270c-3.98-5.59-8.22-26.68-7.72-33.5.95-12.73,10.42-23.69,23.24-25.2,16.5-1.96,26.49,9.83,29.85,24.63,5.91,25.91,8.22,53.74,13.92,79.83-.4,14.92-9.08,27.06-24.67,28.5-11.62,1.08-22.44-7.17-26.57-17.69-2.18-5.56-5.81-25.09-6.03-31.16-.19-5.08,2.82-8.96,4.61-13.06,2.67-6.14-3.68-8.21-6.62-12.34M413.86,213.92c-.16,2.29-1.81,6.86-1.5,8.7.44,2.63,4.22,7.47,5.17,11.03.59,2.22,3.49,18.75,2.79,19.42-3.6.19-7.33-.25-10.93-.01-7.52.51-17.73,2.3-24.83,5.05-7.37,2.84-13.19,7.76-18.35,13.53l-15.09-91.81c3-9.97-2.69-17.74-4.86-27.54-3.23-14.55-4.73-30.26-6.71-45,1.66-27.34,40.56-38.31,53.63-12.42,4.05,8.02,3.93,14.51,5.4,22.86,1.51,8.62,4.7,20.3,5.14,28.66.18,3.44-2.26,9.31-1.87,11.62.23,1.33,2.97,4.81,3.8,6.74,2.73,6.32,8.68,42.35,8.21,49.17M531.16,414.77c-6.46-21.2-22.91-41.05-45.38-45.4-.02,0-.04-.01-.07-.01,1.36-7.35,3.36-14.71,3.22-22.23.56-4.96.65-10.02.3-15.09-.04-.66-.09-1.34-.15-2-.09-.96-.19-1.92-.31-2.88-.1-.84-.22-1.68-.34-2.52-1.87-12.57-6.21-24.95-12.24-35.78-9.24-16.55-24.54-30.32-43.7-33.39h-.02c-1.11-6.28-1.6-13.27-2.82-19.84-.08-.41-.15-.82-.24-1.23-.51-2.56-1.15-5.05-2-7.39-.66-1.86-2.46-4.29-2.95-6.11h0c-.06-.21-.09-.4-.11-.59-.18-1.78.78-3.17.84-4.77.24-7.52-1.25-18.73-2.96-28.97-.2-1.18-.4-2.35-.61-3.5-.08-.47-.15-.92-.23-1.36-.69-3.87-1.37-7.47-1.96-10.52-1.16-6.04-3.98-10.42-4.91-15.37v-.02c-.49-2.62-.44-5.39.66-8.67.01-.03.02-.07.03-.1-.33-1.38-.63-2.83-.93-4.31-.09-.51-.19-1.02-.28-1.54-.23-1.37-.46-2.76-.67-4.2-.1-.68-.2-1.36-.3-2.04-.6-4.11-1.13-8.42-1.72-12.8-.1-.73-.21-1.46-.31-2.19-.03-.18-.06-.35-.08-.53-.09-.63-.19-1.25-.28-1.88-.04-.3-.1-.6-.14-.9-.09-.58-.19-1.18-.28-1.77-2.96-18.23-8.23-36.1-24.65-43.1-24.45-10.43-55.6,6.59-57.36,33.88-.75,11.54,4.55,40.41,7.54,52.3.16.66.34,1.3.54,1.93.06.21.12.41.19.62.88,2.77,1.94,5.3,2.72,7.87.06.13.1.27.13.41,1.11,3.68,1.6,7.44.18,12.01l4.88,27.87c-10.01-7.7-20.52-11.19-33.14-8.51-12.82,2.72-23.34,11.29-27.42,23.86-2.23-1.33-3.69-3.6-5.71-5.19-13.88-10.92-35.18-10.75-49.13,0-2.22,1.71-4,4.4-6.11,6.01-.62.47-.77.96-1.62.87-.12-.02-.25-.04-.4-.08.01-1.18.09-2.38-.08-3.56-.96-6.79-2.3-17.87-4.16-24.1-.42-1.37-1.33-3.01-2.28-4.63-.01-.01-.01-.02-.01-.03-.28-.45-.54-.91-.8-1.35h0c-.93-1.6-1.74-3.11-1.97-4.22-.43-2.19,1.09-6.93,1.23-9.33.64-11.56-5.03-42.94-10.24-54.53-.02-.04-.04-.1-.07-.14-.13-.3-.28-.59-.41-.86-19.9-39.72-79.55-17.24-76.53,21.61.66,8.52,3.37,18.84,4.8,27.51,1.28,7.84,1.78,15.98,3.68,23.77.81,3.29,3.31,7.86,3.63,10.12.4,2.79-.93,4.74-.76,7.14.7,10.48,5.43,38.99,9.04,48.36.95,2.45,3.57,6.09,3.86,8.31.49,3.87-1.26,10.79-.73,16.03,2.98,29.67,13.88,61.78,18.26,91.55,2.89,13.13,4.15,26.67,7.08,39.76,16.87,75.47,89.88,88.14,156.61,79.86,29.43-3.65,70.93-14.01,98.73-34.55,1.18-.87,2.34-1.77,3.47-2.67.57-.45,1.13-.92,1.68-1.38.03-.03.07-.06.1-.08.96-.82,1.91-1.65,2.83-2.48,6.42-5.9,11.73-12.5,15.49-19.84,1.99-3.88,4.04-8.95,4.99-13.17,5.14.09,10.29.64,15.12,1.97,1.12.3,2.22.65,3.29,1.04,2.32.83,4.53,1.88,6.58,3.16.69.42,1.35.87,1.99,1.35.64.49,1.27.98,1.88,1.51.62.54,1.22,1.11,1.79,1.7,1.44,1.5,2.74,3.19,3.9,5.09,4.51,7.41,5.67,15.77,4.22,23.89-.25,1.45-.6,2.88-1,4.3-.63,2.14-1.44,4.24-2.4,6.3-17.05,36.24-60.44,15.95-88.46,31.87-3.41,1.93-7.45,5.33-10.46,9.18-.23.3-.45.6-.68.9,0,.01-.01.02-.02.03-.22.31-.44.62-.65.94-1.47,2.2-2.55,4.5-2.95,6.7-.01.06-.02.11-.03.17-.97,1.24-11.74-11.12-12.92-11.71-2.05-1.04-5.35-.41-7.04,1.31-.04.04-.09.09-.12.14-.46.51-.78,1.11-.91,1.78-.85,4.82,1.46,6.34,2.82,10.1,4.04,11.24,4.74,19.15,4.46,31.09-.07,2.74-1.6,4.73,1.18,7.66,4.73,4.97,10.76-3.57,14.17-6.01,5.49-3.94,14.24-7.31,20.78-9.1,3.27-.9,12.36-1.91,14.36-3.4.7-.52,1.18-1.25,1.47-2.07.81-2.23.18-5.17-1.31-6.67-2.56-2.58-14.47-3.24-18.39-5.05.06-.08.11-.16.19-.24,6.87-9.65,20.34-13.28,31.73-12.68,23.1,1.2,45.01-.97,64.93-14.17,28.47-18.85,34.78-57.92,25.3-89"/>
    <path class="cls-1" d="M411.78,400.81c-6.53,6.82-21.18,2.86-25.37-5.2,1.17-1.3,2.81-1.4,4.34-2.2v.83c3.45,2.05,5.73,3.12,9.96,2.49,6.67-1.01,6.88-12.51,1.18-12.91,2.31-1.98,4.47-3.53,6.09-3.83,3.56-.66,7.01,5.38,7.46,8.39.62,4.07-.81,9.46-3.66,12.44"/>
    <path class="cls-1" d="M285.8,419.37c-6.78,8.33-22.41,13.44-31.79,6.88-8.2-5.71-10.85-16.97-6.66-25.95.66-1.43,3.34-5.35,4.74-5.76,3.46-1.03,6.6.34,9.48,2.15-2.56.5-4.64,2.2-5.3,5.19-2.65,11.92,7.49,19.39,18.51,14.82.93-.39,5.55-3.6,6.95-5.67,2.22.92,4.8,1.46,6.17,2.33,1.81,1.17-1.09,4.78-2.09,6"/>
    <path class="cls-5" d="M899.18,279.5c.42.29,1.36,8.65,1.61,9.96,1.15,5.95,2.31,13.17,3.96,18.89.9,3.1,1.44,4.55,5.13,3.04,6.57-5.2,13.19-10.39,20.04-15.23,2.11-1.49,8.19-6.25,10.05-6.96,1.39-.53,2.48.6,1.99,1.96l-17.01,31.64c-.8,1.48-.36,3.33,1.61,3.36,9.35.09,18.76.32,28.04.86,1.21.07,5.86-.85,5.47,1.01-.1.48-.99.94-1.42,1.21-9.13,5.8-20.77,10.07-30.25,15.54-2.15,1.26-2.08,2.81-.27,4.44l26.5,17.94c.83.63.67,1.68.64,2.61-12.41-.7-24.73-2.72-37.05-4.25-1.13.09-2.05.66-1.99,1.86,2.03,11.16,6.11,21.91,8.57,33.01-.31,2.81-2.21,1.48-3.72.27-7.1-5.7-12.98-13.32-19.71-19.45-3.39-3.09-4.74-4.5-7.25.21-4.76,8.92-8.41,18.5-12.72,27.63-2.44,2.38-3.21-.15-3.64-2.4-1.62-8.5-1.99-17.68-3.18-26.24-.15-1.08-.23-3.22-1.48-3.32l-34.12,21.16c-.98-.33-.83-1.8-.51-2.57,4.58-9.29,10.1-18.17,14.63-27.48,1.36-2.8,2.58-4.18-1.16-5.22-8.06-2.23-21.14-2.19-30.05-3.64-3.23-.52-7.02-.8-2.49-3.62,7.58-4.73,18.42-7.47,26.6-11.36,3.98-1.89,3.61-2.61.59-5.48-7.58-7.19-16.7-13.67-24.3-20.97l-.68-2.57,39.45,8.46c.92-.43,1.87-1,1.73-2.14l-8.22-32.14c.21-2.32.87-2.73,2.75-1.39,6.39,4.57,13.6,14.12,19.93,19.65,1.97,1.72,5.51,5.68,7.7,2.82,4.49-9.78,7.96-20.15,11.83-30.24.25-.73,1.86-1.21,2.37-.86"/>
    <path class="cls-6" d="M851.82,788.34h60.94c.39,0,3.09-2.88,3.38-3.87,1.97-6.6-1.78-20.1-2.56-27.42-8.28-78.06-15.88-155.82-26.11-233.59-.61-4.64.38-16.35-4.43-18.79h-107.41c-4.43,2.21-3.8,16.77-4.43,21.69-4.45,34.76-7.7,69.59-11.61,104.46l-17.02,152.14,1.47,3.62c1.89,1.13,3.99,1.6,6.18,1.8,17.85,1.61,38.25-1.08,56.39-.29l5.33-6.28,1.44-29.75,31.09-.07c4.18.65-.41,34.28,7.36,36.35M692.95,573.61h48.6c.63,0,3.85-3.65,3.63-5.07-1.53-18.49,2.02-40.03.07-58.11-.45-4.13-1.99-6.47-6.53-6.53-52.21,2.85-107.95-3.53-159.73,0-2.48.17-4.73.29-6.99,1.42-1.73,1.05-2.25,4.62-2.42,6.58-1.25,14.24-1.26,41.01-.03,55.25.17,2.01,1.96,6.46,3.7,6.46h50.06v211.1c0,.39,2.24,2.17,2.89,2.91h62.41c.79-.94,4.34-3.97,4.34-4.37v-209.65ZM505.34,504.25c-1.6.44-7.63,4.5-10.16,5.8-3.48,1.79-9.08,1.63-9.73,6.23l.02,266.98c.39,2.7,2.41,4.7,5.08,5.08l57.98-.05,5.91-2.79.7-276.47c-.23-3.13-3.79-4.6-6.61-5-5.66-.81-38.72-1.01-43.19.23M405.67,503.97h-76.17c-6.25,4.62-4.38,11.59-5.18,18.04-8.64,69.51-15.7,139.23-23.21,208.92-1.56,14.51-4.41,29.2-5.6,43.73-.25,3.08-.66,13.68,3.52,13.68h60.94c7.55-6.29,4.41-16.76,5.04-25.43.26-3.54,2.24-6.99,1.49-10.85h31.92c-1.14,5.35,1.14,10.41,1.48,15.2.48,6.64-2.79,19.32,5.32,20.74,18.16-.91,39.97,2.41,57.7.25,4.44-.54,5.92-2.12,6.55-6.54l-28.97-263.25c-7.8-1.83-26.91,3.67-30.47,10.9-1.42,2.88,2.22,1.96,3.48,2.29,5.19,1.36,10.4,1.86,15.2,4.4l.04,8.4c-12.42,3.16-25.13,5.44-36.08,12.53-3.55,2.3-8.39,9.71-13.15,7.25-4.84-2.51-2.43-16.06-2.99-21.7-.44-4.47-2.29-10.84-3.49-15.36-1.49-5.58-8.1-14.12.69-16.8,6.8-2.07,9.54,11.61,17.42,11.01l2.9-6.55,11.62-10.86ZM265.97,530.5c-36.72-39.89-101.69-22.82-149.82-26.6l-5.75,2.96v278.6l5.75,2.96c29.06-1.56,59.79,1.82,88.64,0,54.18-3.42,87.1-44.07,78.9-97.9-4.54-29.87-24.42-39.18-52.14-42.91-.25-3.58-.34-2.46,2.16-2.89,13.29-2.27,31.17-7.56,39.92-18.16,13.63-16.51,13.41-53.43,6.1-72.83-2.12-5.63-9.79-18.9-13.77-23.23M495.63,445.94c-3.84-17.13-20.98-22.85-36.91-23.28-.7.12-2.5,7.71-3.44,9.77-2.11,4.59-5.91,8.71-6.07,13.51h46.43ZM262.04,395.17c-15.36-7.01-20.74,11.32-15.25,23.22,6.07,13.13,20.4,13.52,31.97,7.28,3.86-2.08,15.1-11.84,7.06-14.4-5.87-1.87-6.74,2.08-10.19,4.01-9.34,5.23-21.15-.86-19.43-12.13.56-3.65,4.53-4.74,5.83-7.98M386.82,393.71c-.99,5.27,4.52,7.89,8.7,9.43,5.64,2.08,9.77,2.33,15.06-.91,9.56-5.86,5.66-25.71-3.94-22.84-7.26,2.16-1.11,6.89-.87,9.28.51,5.21-3.3,7.82-8.11,7.86-4.18.03-5.94-5.65-10.83-2.81M239.92,286.68c3.88,4.04-2.88,11.23-3.72,15.18-2.02,9.42,3.18,36.2,9.19,43.93,1.81,2.33,8.43,6.55,11.25,7.61,19.06,7.18,36.83-6.29,38.85-25.71-7.14-26.34-7.15-58.1-14.93-83.8-7.96-26.3-41.23-28.63-52.49-5.3-5.18,10.73-.56,37.17,7.8,45.67,1.24,1.26,3.26,1.58,4.06,2.42M351.57,336.7c12.9-12.89,5.75-29.07,3.46-43.96-2.66-17.31-6.16-58.62-15.43-71.62-14.5-20.33-45.78-8.51-47.16,15.17-.41,7.05,4.2,26.68,8.12,32.58,1.46,2.2,7.26,7.19,7.43,9.46.21,2.62-4.33,9.61-5,13.4-1.59,9.04,4.15,34.26,9.82,41.77,9.15,12.14,27.89,14.06,38.76,3.19M204.01,385c-.58-11.16,3.86-25.73,12.32-33.38,4.16-3.76,9.52-4.8,13.73-8.08-1.46-4.42-2.91-8.8-3.88-13.37-1.36-6.38-5.93-26.57-5.63-31.56.16-2.68,3.84-5.74,3.54-8.42-.25-2.18-3.75-5.54-4.87-8.19-10.43-24.74-5.32-58.17-15.91-85.65-.91-2.37-3.18-3.89-3.64-6.51-1.03-5.85,1.88-12.36,1.5-18.93-.66-11.57-5.6-36.82-11.38-46.65-9.13-15.53-32.83-13.19-44.58-1.91-12.51,12.02-6.98,23.13-5.16,37.14,1.17,8.95,1.44,18.25,3.39,27.08,1.18,5.34,4.82,11.08,5.38,14.93,1.74,11.82.69,24.37,3.32,37.31,2.59,12.72,10.5,24.95,8.3,36.6,6.59,45.16,14.79,92.86,25.12,137.46,7.24,31.25,21.52,51.91,51.82,64.25,50.28,20.47,148.86,7.69,190.78-28.29,12.18-10.46,17.26-22.83,22.65-37.56,16.33-1.48,33.05,1.24,45.54,12.35l13.78-5.26-7.24,13.05,14.5-.73-10.06,8.9c7.73,33.23-6.78,56.24-40.33,62.58-19.05,3.6-52.67-.47-66.32,14.93-3.84,4.32-6.76,11.46-6.61,17.34l-14.49-8.7,4.35,27.57c8.7-4.62,17.18-11.42,27.57-11.61.27-3.65.27-2.43-2.16-2.88-2.46-.46-12.3-1.62-12.33-3.63,6.1-13.96,18.87-22.7,34.04-23.98,25.57-2.15,40.91,3.22,65.1-11.8,37.78-23.46,36.92-97.47-4.84-116.59-5.47-2.51-18.09-2.96-18.62-8.99,15.91-50.92-4.85-114.74-67.76-109.27-15.3,1.33-30.99,8.52-32.65,25.39-1.18,11.99-.28,37.21,6.64,47.12,18.02,25.82,58.42,5.19,52.9-24.6,4.56,2.76,7.38,13.37,7.33,18.14-.02,2.01-1.58,4.25-1.32,5.63.32,1.67,6.54,6.4,8.26,9.1,2.45,3.86,2.94,7.99,4.58,12.1-3.68.68-6.16-2.34-9.46-2.85-11.66-1.81-15.1,5.22-22.44,12.29-.03,1.67,10.24,3.35,13.03,4.37,2.91,1.06,15.41,7.48,16.78,9.37,1.82,2.52-3.57,12.17-5.38,15.06-10.05,16.12-27.51,26.11-46.59,20.92-2.47-.67-13.28-6.24-14.12-5.46,1.37,7.09,9.86,9.45,14.5,13.78.21,1.12-1.33.87-2.19.74-6.43-.95-14.16-5.82-18.14-10.88-2.1-2.68-2.52-6.63-5.78-8l4.34,12.34-2.88.72c-2.52-7.47-6.61-11.99-2.91-20.31-12.12.5-18.53-12.41-17.41-23.22,4.06,5.06,7.68,7.5,14.59,5.16,4.78-1.62,21.35-14.68,24.59-18.93.96-1.26,1.99-1.44,1.44-3.63-11.99-2.01-20.6-10.52-26.84-20.3-14.05,20.96-44.29,23.9-60.94,4.35-3.03,2.7-3.62,6.9-5.87,10.07-5.15,7.24-17.93,13.67-26.77,14.58,5.2,5.04,12.86,9.88,19.31,13.32,7.88,4.2,28.3,14.2,35.79,7.68l4.37-9.39c7.1,16.68-2.94,38.47-23.21,34.82,4.62,8.9,12.14,21.05,2.91,29.01-.08-4.01.32-8.01-.35-12.02-.42-2.51-.99-4.81-4.01-3.94-1.74,12.68-16.51,26.99-28.58,30.19-1.18.31-4.4,1.02-4.8-.44,9.05-5.99,17.7-12.97,23.21-22.48-1.03-.9-10.32,4.59-12.66,5.47-4.86,1.81-11.99,4.25-17.05,4.71-25.93,2.34-47.56-20.2-57.34-42.08l17.87-11.89,14.05-6.26c-4.32-3.13-12.78-9.52-18.12-9.53-7.03-.01-13.76,7.02-19.59,10.25M420.19,252.98c.67-.64-1.24-14.13-1.79-16.35-1.18-4.71-4.84-9.57-5.42-13.44-.67-4.53,1.07-7.87.98-11.3-.33-11.46-4.09-34.86-7.87-45.65-1.12-3.18-4.25-7.26-4.57-8.59-.55-2.28,1.9-7.98,2-11.31.2-6.95-6.21-41.78-8.71-48.6-10.23-27.87-51.83-20.08-54.46,5.03-1.1,10.48,2.55,32.27,4.78,43.21,2.75,13.52,9.04,24.97,7,39.43l14.41,84.98c13.81-15.25,33.84-18.55,53.68-17.4M610.25,759.32l-15.23,10.16c-11.9,8.16-23.79,20.58-35.6,28.24-2.96,1.92-7.28,3.36-10.8,3.71-13.73,1.35-42.93,1.35-56.66,0-5.37-.53-10.06-3.24-14.72-5.66-4.82,2.45-8.55,5.1-14.23,5.66-13.05,1.28-45.3,1.53-57.99-.12-8.38-1.09-14.56-6.83-17.51-14.44-8.71,4.27-17.68,13.14-27.64,14.44-12.44,1.63-46.66,1.45-59.29-.03-7.96-.93-14.84-5.25-17.24-13.23-2.71-9.01.85-20.91,1.89-30.19-7.6,8.27-14.17,17.12-23.31,23.84-16.88,12.41-37.7,18.52-58.59,19.76-24.53,1.45-61.4,1.79-85.74,0-9.21-.68-17.04-3.93-20.31-13.06v-284.49c1.43-3.1,2.55-5.53,5.21-7.85,20.26-17.66,49.95-31.8,71.05-49.37l10.12-.76-9.74-28.7c-2.71-41.28-21.39-85.84-24.97-125.92-.66-7.39.87-16.09-.16-23.06-.51-3.46-4.03-9.09-5.35-13.51-4.98-16.65-4.85-32.3-6.2-48.8-.28-3.47-3.16-8.27-3.98-12.11-3.17-14.74-9.36-46.61-7.55-60.48,1.95-14.9,19.21-27.58,32.94-30.9,44.56-10.78,54.74,44.47,54.07,77.28-.24,11.86.7,7.69,3.94,17.75,2.74,8.52,2.39,17.87,4.73,26.47,3.58.94,3.32-2.65,4.76-3.92,16.4-14.42,41.77-13.18,56.89,2.46,4.89-8.05,8.62-14.37,17.11-19.15,13.44-7.55,30.51-4.85,43.09,3.2,1.31-1.54-3.75-21.55-3.91-25.66-.81-19.91-8.24-37.69-10.48-57.88-1.96-17.68-1.31-33.52,13.68-45.59,10.43-8.39,25.69-11.72,38.5-8.04,27.78,7.98,28.84,41.51,32,65.21,1.83,13.75,3.58,23.18,6.7,36.82,2.71,11.85,3.78,22.46,4.73,34.44.97,12.23,3.1,17.8,5.48,29.35,1.03,5,.9,12.57,2.06,16.8,1.04,3.81,13.3,6.07,17.67,8.45,28.14,15.31,42.16,55.55,40.17,86.13-.24,3.76-3.97,20.71-2.82,22.34,21.18,5.5,38.05,24.22,44.49,44.73,2.27,7.23,4.85,21.29,4.85,28.65,0,4.83-2.77,9.96-1.57,15.23l14.5-10.88,63.11-.73c1.7.18,3.63,1.4,4.37,2.88,1.23,2.47.06,8.78,1.44,8.73l17.4-11.62,170.57.65,2.09,19.67,30.52-20.26,108.14.58c3.36,5.23,2.15,11.76,2.9,17.41,10.35,77.79,17.36,155.55,26.12,233.59,3.13,17.46,5.19,35.07,5.47,52.83l-52.73,39.39c-5.07,7.2-9.73,10.82-18.82,11.64-13.58,1.23-44.55,1.47-57.71-.39-6.46-.91-11.12-3.02-14.43-8.78-1.54-2.69-2.17-5.52-3.35-8.28-9.69,3.63-16.31,15.38-26.43,17.1-18.92-1.1-42.13,2.63-60.54.24-8.99-1.17-17.4-8.97-18.21-18.18-.33-3.77,2-6.94,1.44-10.75l-21.03,14.51c-6.95,5.29-12.7,13.23-21.85,14.42-12.51,1.62-46.61,1.45-59.29-.03-4.17-.49-10.21-2.68-13.2-5.66-1.02-1.02-5.05-7.48-5.05-8.01v-28.29Z"/>
    <path class="cls-6" d="M716.16,273.28l5.81,85.61h5.8l5.81-85.61h61.66l2.18,2.18v142.18l-2.18,2.18h-34.1c.6-1.51-1.45-3.24-1.45-3.63v-79.07h-5.79s-10.84,81.31-10.84,81.31c-1.01,1.59-2.73,1.33-4.35,1.46-7,.55-22.5.88-29.11-.04-1.19-.16-2.24-.29-2.93-1.42l-10.84-81.31h-5.79v79.07c0,.38-2.05,2.12-1.45,3.63h-34.09l-2.18-2.18v-142.18l2.18-2.18h61.66Z"/>
    <path class="cls-6" d="M338.93,830.41c2.7,2.26,1.44,37.57.78,43.58-.33.49-4.14,2.85-4.4,2.85h-61.66v20.31h48.6c.38,0,2.12,2.05,3.63,1.45v42.8c-.92.9-4.4,3.63-5.08,3.63h-47.15v20.31h63.11c.21,0,2.66,2.39,2.92,2.89,1.37,2.68,1.2,31.91.76,37.06-.2,2.37-1.25,4.22-1.5,6.48h-109.54l-2.17-2.18v-177l2.17-2.18h109.54Z"/>
    <path class="cls-6" d="M809.02,902.95l-7.17.09-3,39.09h13.06s-2.89-39.18-2.89-39.18ZM818.45,1011.77c-5.25-5.63-3.12-13.83-3.8-20.86l-1.19-1.71-17.5-.65-1.41,19.63-2.21,3.59h-40.62c-3.27-2.79-2.51-9.58-2.21-13.82,3.44-49.12,11.36-102.15,17.35-150.95.74-6.04-1.61-16,6.56-16.65,20.98-1.67,44.14,1.4,65.38.04l3.43,2.37,18.85,176.66-1.99,2.35h-40.62Z"/>
    <path class="cls-6" d="M708.91,830.41h42.8c4.49,3.18,1.14,7.35.82,10.98-4.3,48.18-10.41,96.65-15.96,145.09-.43,3.74-1.07,24.96-3.88,25.36l-70.26-.74-1.74-2.61-9.91-90.2c-2.82-25.67-6.44-51.23-8.56-77.03-.33-4-2.31-6.36-.04-10.85h42.8c3.9,3.16,1.68,9.11,2.14,13.82,2.43,24.96,4.24,50.45,5.88,75.37.28,4.34-1.08,15.57.62,18.24,1.54,2.41,6.91,2.08,7.87-.97l7.43-106.46Z"/>
    <path class="cls-6" d="M389.34,830.77c22.72-3.15,48.04,1.89,61.97,21.48,4.1,5.77,12.14,25.87,6.63,31.17l-39.95,13.23-4.41-2.33c-1.43-3.4-.17-7.1-.94-10.66-2.41-11.17-23.53-10.07-19.75,6.71,2.27,10.09,25.4,14.47,34.09,18.13,27.23,11.49,35.21,27.98,32.25,57.47-6.24,62.2-106.62,59.9-112.94,2.91-.4-3.57-1.17-8.77,2.21-10.64l41.19-12.56c6.17,2.99-1.67,17.78,10.95,19.62,14.43,2.1,16.78-14.15,6.43-20.93-13.15-8.63-31.13-8.96-44.96-20.33-32.08-26.38-15.32-87.37,27.22-93.26"/>
    <path class="cls-6" d="M153.22,876.84v20.31h48.6c.32,0,3.3,1.7,3.72,2.38,1.14,2.26,1.25,4.51,1.42,6.99.58,8.35.85,23.86-.15,31.92-.32,2.6-2.17,6.59-5,6.59h-48.6v63.11c0,.38-2.05,2.12-1.45,3.63h-42.8l-2.18-2.18v-177l2.18-2.18h108.82l2.18,2.18v40.62c-.92.9-4.4,3.63-5.08,3.63h-61.66Z"/>
    <path class="cls-6" d="M914.93,830.41c-.6,1.51,1.45,3.24,1.45,3.63v131.3h63.11c.26,0,3.63,3.37,3.63,3.63v40.62l-2.18,2.18h-108.82l-2.18-2.18v-177l2.18-2.18h42.8Z"/>
    <path class="cls-6" d="M544.96,876.84v132.75l-2.18,2.18h-42.8c.6-1.5-1.45-3.24-1.45-3.63v-131.3h-28.29c-.67,0-4.16-2.73-5.08-3.63v-40.62l2.18-2.18h108.82l2.18,2.18v40.62c0,.26-3.37,3.63-3.63,3.63h-29.74Z"/>
    <path class="cls-6" d="M588.48,368.32c.16,1.33,1.94,7.6,2.56,9.05,1.41,3.32,7.57,7.28,9.15,3.86.86-1.85,4.25-10.39,4.25-11.46v-94.31l2.18-2.18h33.37l2.18,2.18v95.76c0,.74-1.43,9.37-1.8,11.26-5.2,27.34-21.91,39.54-49.77,37.41-24.08-1.85-34.67-17.8-38.28-40.07-.29-1.81-1.56-9.53-1.56-10.05v-94.31l2.17-2.18h33.37l2.18,2.18v92.85Z"/>
    <path class="cls-6" d="M632.01,830.41c.66,2.75,1.33,4.98,1.52,7.91,3.47,54.32-2.8,112.28,0,166.99.75,1.85-2.67,6.46-3.7,6.46h-40.62l-2.18-2.18v-177l2.18-2.18h42.8Z"/>
    <path class="cls-6" d="M353.44,422c-.54-4.6-4.23-15.34-6.13-19.98-4.6-11.24-12.04-21.03-19.98-30.06,13.45,2.63,24.13,18.06,30.74,29.47,9.5,16.41,15.01,35.75,12.11,54.73l-2.64,1.17-44.57-16.46c-.4-3.53.82-1.88,2.94-1.48,9.08,1.69,18.32,3.7,27.54,3.67-.56-6.73.78-14.47,0-21.04"/>
    <path class="cls-6" d="M195.3,197.85c-2.57,8.77-16.86,14.63-25.11,12.78-3.11-.7-6.13-4.04-9.71-4.09-.41-1.91,1.49-1.71,2.9-2.15,3.99-1.26,30.67-7.59,31.92-6.54"/>
    <path class="cls-6" d="M173.53,270.37c-2.43-1.9.38-2.56,2.04-2.99,10.39-2.68,20.84-4.91,31.32-7.15-3.3,14.01-22.15,15.31-33.36,10.14"/>
    <path class="cls-6" d="M181.69,672.44c9.98-.09,22.47-2.59,29.39,6.54,3.89,5.13,3.98,19.48,3.04,25.88-1.14,7.79-10.74,13.15-18.05,13.87-2.97.29-14.7.66-16.08-1.4-2.48-3.71.06-36.89,0-43.69l1.71-1.19Z"/>
    <path class="cls-6" d="M179.34,620.04v-46.43c11.19-.1,26.79-1.98,33.18,9.62,2.86,5.2,2.69,23.14-.59,28.03-7.37,10.98-21.1,8.7-32.58,8.77"/>
    <path class="cls-6" d="M836.59,601.17l4.34,74.73c-.59,7.77-21.92,6.67-22.99,1.27l5.61-75.97,13.03-.03Z"/>
    <path class="cls-6" d="M388.12,601.32l5.73,74.27c-.15,7.82-18.99,6.64-21.65,3.31-3.56-4.47-.08-10.05.13-14.57.73-15.12,2.05-30.01,2.9-44.98.34-6.02-.32-12.17-.04-18.18l12.92.14Z"/>
    <path class="cls-6" d="M394.06,160.12c-1.59,9.46-15.26,14.17-23.61,12.75-3.17-.54-7.48-2.43-9.75-4.77l33.36-7.97Z"/>
    <path class="cls-6" d="M407.12,223.96c-2.06,10.69-29.28,15.92-33.36,7.96-1.39-2.7,2.87-2.38,4.39-2.83,4.4-1.32,26.62-7.05,28.97-5.13"/>
  </g>
</svg>